<svg width="22" height="22" viewBox="0 0 22 22" fill="none" xmlns="http://www.w3.org/2000/svg">
<g clip-path="url(#clip0_378_64)">
<path d="M20.8336 19.6463L15.8196 14.6324C17.186 12.9613 17.8578 10.8289 17.6961 8.67639C17.5343 6.52386 16.5514 4.51584 14.9507 3.06768C13.35 1.61951 11.2539 0.841987 9.09597 0.895942C6.93805 0.949897 4.88342 1.8312 3.35706 3.35755C1.83071 4.88391 0.949408 6.93854 0.895454 9.09646C0.841499 11.2544 1.61902 13.3505 3.06719 14.9512C4.51536 16.5519 6.52338 17.5348 8.6759 17.6965C10.8284 17.8583 12.9608 17.1865 14.6319 15.8201L19.6458 20.8341C19.8043 20.9871 20.0164 21.0718 20.2367 21.0698C20.4569 21.0679 20.6676 20.9796 20.8234 20.8238C20.9791 20.6681 21.0674 20.4574 21.0694 20.2372C21.0713 20.0169 20.9866 19.8047 20.8336 19.6463ZM9.31971 16.0402C7.99062 16.0402 6.69138 15.6461 5.58628 14.9077C4.48118 14.1693 3.61986 13.1198 3.11124 11.8918C2.60262 10.6639 2.46954 9.31274 2.72883 8.00919C2.98812 6.70564 3.62814 5.50825 4.56795 4.56844C5.50776 3.62863 6.70515 2.98861 8.0087 2.72932C9.31225 2.47003 10.6634 2.60311 11.8913 3.11173C13.1193 3.62035 14.1688 4.48167 14.9072 5.58677C15.6456 6.69186 16.0397 7.99111 16.0397 9.3202C16.0377 11.1018 15.3291 12.8099 14.0693 14.0697C12.8094 15.3296 11.1013 16.0382 9.31971 16.0402Z" fill="white"/>
</g>
<defs>
<clipPath id="clip0_378_64">
<rect width="20.16" height="20.16" fill="white" transform="translate(0.919922 0.919678)"/>
</clipPath>
</defs>
</svg>
